<mxfile host="app.diagrams.net" modified="2021-03-17T19:21:31.051Z" agent="5.0 (Windows NT 10.0; Win64; x64) AppleWebKit/537.36 (KHTML, like Gecko) Chrome/89.0.4389.82 Safari/537.36" etag="SuCHqg0GPWsOoeXtig5I" version="14.4.8" type="github" pages="2">
  <diagram id="uv2ibYE0WrNSJME1iv72" name="main">
    <mxGraphModel dx="2015" dy="1045" grid="0" gridSize="10" guides="1" tooltips="1" connect="1" arrows="1" fold="1" page="1" pageScale="1" pageWidth="1654" pageHeight="2336" background="none" math="0" shadow="0">
      <root>
        <mxCell id="HTLhayZoPIlUtk6wbwgp-0" />
        <mxCell id="HTLhayZoPIlUtk6wbwgp-1" parent="HTLhayZoPIlUtk6wbwgp-0" />
        <mxCell id="dgvTd2v3gMKA7dQ7KnEj-0" style="edgeStyle=orthogonalEdgeStyle;rounded=0;orthogonalLoop=1;jettySize=auto;html=1;entryX=0.5;entryY=0;entryDx=0;entryDy=0;" edge="1" parent="HTLhayZoPIlUtk6wbwgp-1" source="-QwuTwZYI-Z--9Vo9PYR-0" target="-QwuTwZYI-Z--9Vo9PYR-1">
          <mxGeometry relative="1" as="geometry" />
        </mxCell>
        <mxCell id="-QwuTwZYI-Z--9Vo9PYR-0" value="PROMPT" style="rounded=0;whiteSpace=wrap;html=1;" vertex="1" parent="HTLhayZoPIlUtk6wbwgp-1">
          <mxGeometry x="40" y="40" width="160" height="80" as="geometry" />
        </mxCell>
        <mxCell id="dgvTd2v3gMKA7dQ7KnEj-1" style="edgeStyle=orthogonalEdgeStyle;rounded=0;orthogonalLoop=1;jettySize=auto;html=1;" edge="1" parent="HTLhayZoPIlUtk6wbwgp-1" source="-QwuTwZYI-Z--9Vo9PYR-1" target="-QwuTwZYI-Z--9Vo9PYR-2">
          <mxGeometry relative="1" as="geometry" />
        </mxCell>
        <mxCell id="-QwuTwZYI-Z--9Vo9PYR-1" value="RECUPERER LE PATH" style="rounded=1;whiteSpace=wrap;html=1;" vertex="1" parent="HTLhayZoPIlUtk6wbwgp-1">
          <mxGeometry x="40" y="200" width="160" height="80" as="geometry" />
        </mxCell>
        <mxCell id="dgvTd2v3gMKA7dQ7KnEj-2" style="edgeStyle=orthogonalEdgeStyle;rounded=0;orthogonalLoop=1;jettySize=auto;html=1;" edge="1" parent="HTLhayZoPIlUtk6wbwgp-1" source="-QwuTwZYI-Z--9Vo9PYR-2" target="-QwuTwZYI-Z--9Vo9PYR-3">
          <mxGeometry relative="1" as="geometry" />
        </mxCell>
        <mxCell id="-QwuTwZYI-Z--9Vo9PYR-2" value="FORK" style="rounded=1;whiteSpace=wrap;html=1;" vertex="1" parent="HTLhayZoPIlUtk6wbwgp-1">
          <mxGeometry x="40" y="360" width="160" height="80" as="geometry" />
        </mxCell>
        <mxCell id="-QwuTwZYI-Z--9Vo9PYR-3" value="EXECVE" style="rounded=1;whiteSpace=wrap;html=1;" vertex="1" parent="HTLhayZoPIlUtk6wbwgp-1">
          <mxGeometry x="40" y="520" width="160" height="80" as="geometry" />
        </mxCell>
        <mxCell id="yI2TxyGMSCWaiFbNrJTr-0" value="Comments" parent="HTLhayZoPIlUtk6wbwgp-0" />
        <mxCell id="yI2TxyGMSCWaiFbNrJTr-4" value="&lt;p style=&quot;line-height: 100%&quot;&gt;&lt;/p&gt;&lt;h1 style=&quot;font-size: 17px&quot;&gt;&lt;font style=&quot;font-size: 17px&quot; face=&quot;Lucida Console&quot;&gt;LANCER UN PROGRAMME - RECUPERER LE PATH&lt;/font&gt;&lt;/h1&gt;&lt;h1 style=&quot;font-size: 17px&quot;&gt;&lt;font face=&quot;Lucida Console&quot; style=&quot;font-size: 17px&quot;&gt;&amp;nbsp; -&amp;gt; Utiliser execve&lt;/font&gt;&lt;/h1&gt;&lt;h1 style=&quot;font-size: 17px&quot;&gt;&lt;font face=&quot;Lucida Console&quot;&gt;&lt;font style=&quot;font-size: 17px&quot;&gt;Cette fonction prend en parametre un path. Il faut recuperer&lt;/font&gt;&amp;nbsp;ce path. Pour cela, notre environnement nous fournit un element appele PATH.&lt;/font&gt;&lt;/h1&gt;&lt;h1 style=&quot;font-size: 17px&quot;&gt;&lt;font face=&quot;Lucida Console&quot; style=&quot;font-size: 17px&quot;&gt;&amp;nbsp; -&amp;gt; faire une fonction qui recupere le contenu d’un element de l’env.&lt;/font&gt;&lt;/h1&gt;&lt;p&gt;&lt;/p&gt;" style="text;html=1;strokeColor=none;fillColor=none;spacing=5;spacingTop=-20;whiteSpace=wrap;overflow=hidden;rounded=0;" vertex="1" parent="yI2TxyGMSCWaiFbNrJTr-0">
          <mxGeometry x="458" y="74" width="818" height="157" as="geometry" />
        </mxCell>
        <mxCell id="yI2TxyGMSCWaiFbNrJTr-5" value="" style="endArrow=none;dashed=1;html=1;dashPattern=1 3;strokeWidth=2;entryX=0;entryY=0;entryDx=0;entryDy=0;exitX=1;exitY=0.5;exitDx=0;exitDy=0;" edge="1" parent="yI2TxyGMSCWaiFbNrJTr-0" source="-QwuTwZYI-Z--9Vo9PYR-1" target="yI2TxyGMSCWaiFbNrJTr-4">
          <mxGeometry width="50" height="50" relative="1" as="geometry">
            <mxPoint x="430" y="333" as="sourcePoint" />
            <mxPoint x="480" y="283" as="targetPoint" />
          </mxGeometry>
        </mxCell>
      </root>
    </mxGraphModel>
  </diagram>
  <diagram id="C5RBs43oDa-KdzZeNtuy" name="builtin redirection">
    <mxGraphModel dx="2418" dy="1254" grid="0" gridSize="10" guides="1" tooltips="1" connect="1" arrows="1" fold="1" page="1" pageScale="1" pageWidth="1654" pageHeight="2336" math="0" shadow="0">
      <root>
        <mxCell id="WIyWlLk6GJQsqaUBKTNV-0" />
        <mxCell id="WIyWlLk6GJQsqaUBKTNV-1" parent="WIyWlLk6GJQsqaUBKTNV-0" />
        <mxCell id="RSyX177wiVmTxqyUj2Kn-18" style="edgeStyle=orthogonalEdgeStyle;rounded=0;orthogonalLoop=1;jettySize=auto;html=1;" edge="1" parent="WIyWlLk6GJQsqaUBKTNV-1" source="RSyX177wiVmTxqyUj2Kn-0" target="RSyX177wiVmTxqyUj2Kn-14">
          <mxGeometry relative="1" as="geometry" />
        </mxCell>
        <mxCell id="RSyX177wiVmTxqyUj2Kn-19" style="edgeStyle=orthogonalEdgeStyle;rounded=0;orthogonalLoop=1;jettySize=auto;html=1;entryX=0.5;entryY=0;entryDx=0;entryDy=0;" edge="1" parent="WIyWlLk6GJQsqaUBKTNV-1" source="RSyX177wiVmTxqyUj2Kn-0" target="RSyX177wiVmTxqyUj2Kn-13">
          <mxGeometry relative="1" as="geometry" />
        </mxCell>
        <mxCell id="RSyX177wiVmTxqyUj2Kn-21" style="edgeStyle=orthogonalEdgeStyle;rounded=0;orthogonalLoop=1;jettySize=auto;html=1;entryX=0.5;entryY=0;entryDx=0;entryDy=0;" edge="1" parent="WIyWlLk6GJQsqaUBKTNV-1" source="RSyX177wiVmTxqyUj2Kn-0" target="RSyX177wiVmTxqyUj2Kn-12">
          <mxGeometry relative="1" as="geometry" />
        </mxCell>
        <mxCell id="RSyX177wiVmTxqyUj2Kn-22" style="edgeStyle=orthogonalEdgeStyle;rounded=0;orthogonalLoop=1;jettySize=auto;html=1;" edge="1" parent="WIyWlLk6GJQsqaUBKTNV-1" source="RSyX177wiVmTxqyUj2Kn-0" target="RSyX177wiVmTxqyUj2Kn-15">
          <mxGeometry relative="1" as="geometry" />
        </mxCell>
        <mxCell id="RSyX177wiVmTxqyUj2Kn-23" style="edgeStyle=orthogonalEdgeStyle;rounded=0;orthogonalLoop=1;jettySize=auto;html=1;" edge="1" parent="WIyWlLk6GJQsqaUBKTNV-1" source="RSyX177wiVmTxqyUj2Kn-0" target="RSyX177wiVmTxqyUj2Kn-16">
          <mxGeometry relative="1" as="geometry" />
        </mxCell>
        <mxCell id="RSyX177wiVmTxqyUj2Kn-24" style="edgeStyle=orthogonalEdgeStyle;rounded=0;orthogonalLoop=1;jettySize=auto;html=1;" edge="1" parent="WIyWlLk6GJQsqaUBKTNV-1" source="RSyX177wiVmTxqyUj2Kn-0" target="RSyX177wiVmTxqyUj2Kn-17">
          <mxGeometry relative="1" as="geometry" />
        </mxCell>
        <mxCell id="RSyX177wiVmTxqyUj2Kn-25" style="edgeStyle=orthogonalEdgeStyle;rounded=0;orthogonalLoop=1;jettySize=auto;html=1;entryX=0.5;entryY=0;entryDx=0;entryDy=0;" edge="1" parent="WIyWlLk6GJQsqaUBKTNV-1" source="RSyX177wiVmTxqyUj2Kn-0" target="RSyX177wiVmTxqyUj2Kn-2">
          <mxGeometry relative="1" as="geometry" />
        </mxCell>
        <mxCell id="RSyX177wiVmTxqyUj2Kn-26" style="edgeStyle=orthogonalEdgeStyle;rounded=0;orthogonalLoop=1;jettySize=auto;html=1;" edge="1" parent="WIyWlLk6GJQsqaUBKTNV-1" source="RSyX177wiVmTxqyUj2Kn-0" target="RSyX177wiVmTxqyUj2Kn-1">
          <mxGeometry relative="1" as="geometry" />
        </mxCell>
        <mxCell id="RSyX177wiVmTxqyUj2Kn-0" value="BUILTIN REDIRECTION&amp;nbsp;" style="rounded=1;whiteSpace=wrap;html=1;" vertex="1" parent="WIyWlLk6GJQsqaUBKTNV-1">
          <mxGeometry x="40" y="40" width="1600" height="70" as="geometry" />
        </mxCell>
        <mxCell id="RSyX177wiVmTxqyUj2Kn-1" value="ECHO" style="rounded=1;whiteSpace=wrap;html=1;" vertex="1" parent="WIyWlLk6GJQsqaUBKTNV-1">
          <mxGeometry x="40" y="150" width="120" height="60" as="geometry" />
        </mxCell>
        <mxCell id="RSyX177wiVmTxqyUj2Kn-2" value="CD" style="rounded=1;whiteSpace=wrap;html=1;" vertex="1" parent="WIyWlLk6GJQsqaUBKTNV-1">
          <mxGeometry x="260" y="150" width="120" height="60" as="geometry" />
        </mxCell>
        <mxCell id="RSyX177wiVmTxqyUj2Kn-12" value="PWD" style="rounded=1;whiteSpace=wrap;html=1;" vertex="1" parent="WIyWlLk6GJQsqaUBKTNV-1">
          <mxGeometry x="480" y="150" width="120" height="60" as="geometry" />
        </mxCell>
        <mxCell id="RSyX177wiVmTxqyUj2Kn-13" value="EXPORT" style="rounded=1;whiteSpace=wrap;html=1;" vertex="1" parent="WIyWlLk6GJQsqaUBKTNV-1">
          <mxGeometry x="680" y="150" width="120" height="60" as="geometry" />
        </mxCell>
        <mxCell id="RSyX177wiVmTxqyUj2Kn-14" value="UNSET" style="rounded=1;whiteSpace=wrap;html=1;" vertex="1" parent="WIyWlLk6GJQsqaUBKTNV-1">
          <mxGeometry x="880" y="150" width="120" height="60" as="geometry" />
        </mxCell>
        <mxCell id="RSyX177wiVmTxqyUj2Kn-15" value="ENV" style="rounded=1;whiteSpace=wrap;html=1;" vertex="1" parent="WIyWlLk6GJQsqaUBKTNV-1">
          <mxGeometry x="1080" y="150" width="120" height="60" as="geometry" />
        </mxCell>
        <mxCell id="RSyX177wiVmTxqyUj2Kn-16" value="EXIT" style="rounded=1;whiteSpace=wrap;html=1;" vertex="1" parent="WIyWlLk6GJQsqaUBKTNV-1">
          <mxGeometry x="1290" y="150" width="120" height="60" as="geometry" />
        </mxCell>
        <mxCell id="RSyX177wiVmTxqyUj2Kn-17" value="UNKNOWN" style="rounded=1;whiteSpace=wrap;html=1;" vertex="1" parent="WIyWlLk6GJQsqaUBKTNV-1">
          <mxGeometry x="1490" y="150" width="120" height="60" as="geometry" />
        </mxCell>
      </root>
    </mxGraphModel>
  </diagram>
</mxfile>
